<svg id="Layer_1" data-name="Layer 1" xmlns="http://www.w3.org/2000/svg" viewBox="0 0 730.53 202.29"><defs><style>.cls-1{fill:#fff;}.cls-2{fill:#51cc62;}</style></defs><path class="cls-1" d="M258.17,88.48q-4.4-2.2-11.65-2.2a31.4,31.4,0,0,0-15,3.79A66.24,66.24,0,0,0,217,101.12v75H203.6a15,15,0,0,1-15-15V75.78a15,15,0,0,1,15-15H217V77.27a73.88,73.88,0,0,1,15.61-13.08A34.86,34.86,0,0,1,251.25,59q8.79,0,12.53,2.31Z"/><path class="cls-1" d="M346.76,164.1h0q-16.81,15.39-36.05,15.39T281.8,169.43Q272,159.37,272,143.65q0-12.3,5-20.33a33.44,33.44,0,0,1,14.84-12.58q9.84-4.56,28.3-6.43L344.45,102V96.83q0-9.66-5.82-13.24t-17-3.57a37.55,37.55,0,0,0-15.88,3.07,20.89,20.89,0,0,0-9.84,8.8L273.78,77.71q5.82-9.78,18.24-15t30-5.22q26.93,0,38.85,9.4t11.93,30.83v78.37H358.74A12,12,0,0,1,346.76,164.1Zm-2.31-41.55-14.4,1.32q-15.27,1.32-22,5.83t-6.76,13.52q0,7.91,4.39,10.82T317.3,157q5.18,0,12.59-3.24a61.24,61.24,0,0,0,14.56-9.18Z"/><path class="cls-1" d="M541.3,176.08V108.15a80.85,80.85,0,0,0-1.21-15.93c-.8-3.81-2-6.4-3.68-7.75s-4.38-2-8.19-2q-6.48,0-13.74,4.84A70.61,70.61,0,0,0,501,99.14v76.94H484.59a12,12,0,0,1-12-12V108.15q0-11.2-1-16.21t-3.52-7.25c-1.68-1.5-4.54-2.26-8.57-2.26q-5.28,0-12.2,4T432.27,99.14v76.94H415.89a12,12,0,0,1-12-12V72.76a12,12,0,0,1,12-12h16.38v15a67.55,67.55,0,0,1,16.6-13.41,38.87,38.87,0,0,1,19.23-4.84q14.4,0,21.27,5t9.4,14.62q9.89-9.9,18.52-14.73a40.6,40.6,0,0,1,20.17-4.84q16.81,0,24.51,9.57t7.69,32.09v76.94Z"/><path class="cls-1" d="M674.08,164.1v-2.86a59.44,59.44,0,0,1-18.3,13.14A48.88,48.88,0,0,1,635,179.49q-19.58,0-27.37-10.83t-7.8-30.83V72.76a12,12,0,0,1,12-12h16.37v63.53q0,12.19,1.43,18.69t4.67,8.95q3.24,2.48,9.51,2.48,12.64,0,30.34-16.6V72.76a12,12,0,0,1,12-12h16.37v115.3H686.06A12,12,0,0,1,674.08,164.1Z"/><path class="cls-2" d="M31.92,60.35H76.26V173.9H31.92ZM135.37,32H91V69.81h18.47V88.74h7.39V69.81h18.47Z"/></svg>